<svg id="visual" viewBox="0 0 900 600" width="900" height="600" xmlns="http://www.w3.org/2000/svg" xmlns:xlink="http://www.w3.org/1999/xlink" version="1.1"><rect x="0" y="0" width="900" height="600" fill="#181818"></rect><defs><linearGradient id="grad1_0" x1="33.3%" y1="0%" x2="100%" y2="100%"><stop offset="20%" stop-color="#181818" stop-opacity="1"></stop><stop offset="80%" stop-color="#181818" stop-opacity="1"></stop></linearGradient></defs><defs><linearGradient id="grad2_0" x1="0%" y1="0%" x2="66.7%" y2="100%"><stop offset="20%" stop-color="#181818" stop-opacity="1"></stop><stop offset="80%" stop-color="#181818" stop-opacity="1"></stop></linearGradient></defs><g transform="translate(900, 0)"><path d="M0 270.4C-31.7 261.3 -63.4 252.3 -100.3 242.1C-137.2 231.8 -179.3 220.5 -191.2 191.2C-203.2 162 -184.9 114.8 -193.1 80C-201.3 45.1 -235.8 22.6 -270.4 0L0 0Z" fill="#D2292D"></path></g><g transform="translate(0, 600)"><path d="M0 -270.4C34.1 -265.9 68.2 -261.5 103.5 -249.8C138.8 -238.2 175.4 -219.5 189.5 -189.5C203.6 -159.6 195.4 -118.4 205.1 -85C214.8 -51.5 242.6 -25.8 270.4 0L0 0Z" fill="#D2292D"></path></g></svg>