<svg id="visual" viewBox="0 0 900 600" width="900" height="600" xmlns="http://www.w3.org/2000/svg" xmlns:xlink="http://www.w3.org/1999/xlink" version="1.1"><rect x="0" y="0" width="900" height="600" fill="#181818"></rect><path d="M338 0L327.3 7.7C316.7 15.3 295.3 30.7 291.5 46C287.7 61.3 301.3 76.7 298.7 92C296 107.3 277 122.7 271.2 138.2C265.3 153.7 272.7 169.3 273.2 184.8C273.7 200.3 267.3 215.7 273.2 231C279 246.3 297 261.7 298.7 277C300.3 292.3 285.7 307.7 278.8 323C272 338.3 273 353.7 280 369C287 384.3 300 399.7 292.5 415.2C285 430.7 257 446.3 243.5 461.8C230 477.3 231 492.7 244 508C257 523.3 282 538.7 290.7 554C299.3 569.3 291.7 584.7 287.8 592.3L284 600L0 600L0 592.3C0 584.7 0 569.3 0 554C0 538.7 0 523.3 0 508C0 492.7 0 477.3 0 461.8C0 446.3 0 430.7 0 415.2C0 399.7 0 384.3 0 369C0 353.7 0 338.3 0 323C0 307.7 0 292.3 0 277C0 261.7 0 246.3 0 231C0 215.7 0 200.3 0 184.8C0 169.3 0 153.7 0 138.2C0 122.7 0 107.3 0 92C0 76.7 0 61.3 0 46C0 30.7 0 15.3 0 7.7L0 0Z" fill="#13703a"></path><path d="M206 0L208.5 7.7C211 15.3 216 30.7 233.3 46C250.7 61.3 280.3 76.7 286.8 92C293.3 107.3 276.7 122.7 260.5 138.2C244.3 153.7 228.7 169.3 226.5 184.8C224.3 200.3 235.7 215.7 239.3 231C243 246.3 239 261.7 239 277C239 292.3 243 307.7 252.3 323C261.7 338.3 276.3 353.7 269.3 369C262.3 384.3 233.7 399.7 223.5 415.2C213.3 430.7 221.7 446.3 229 461.8C236.3 477.3 242.7 492.7 253.5 508C264.3 523.3 279.7 538.7 289.8 554C300 569.3 305 584.7 307.5 592.3L310 600L0 600L0 592.3C0 584.7 0 569.3 0 554C0 538.7 0 523.3 0 508C0 492.7 0 477.3 0 461.8C0 446.3 0 430.7 0 415.2C0 399.7 0 384.3 0 369C0 353.7 0 338.3 0 323C0 307.7 0 292.3 0 277C0 261.7 0 246.3 0 231C0 215.7 0 200.3 0 184.8C0 169.3 0 153.7 0 138.2C0 122.7 0 107.3 0 92C0 76.7 0 61.3 0 46C0 30.7 0 15.3 0 7.7L0 0Z" fill="#116633"></path><path d="M261 0L250.5 7.7C240 15.3 219 30.7 214.7 46C210.3 61.3 222.7 76.7 224 92C225.3 107.3 215.7 122.7 207.2 138.2C198.7 153.7 191.3 169.3 200.5 184.8C209.7 200.3 235.3 215.7 247.3 231C259.3 246.3 257.7 261.7 246.2 277C234.7 292.3 213.3 307.7 205.7 323C198 338.3 204 353.7 212.3 369C220.7 384.3 231.3 399.7 237.3 415.2C243.3 430.7 244.7 446.3 247 461.8C249.3 477.3 252.7 492.7 257.3 508C262 523.3 268 538.7 262.2 554C256.3 569.3 238.7 584.7 229.8 592.3L221 600L0 600L0 592.3C0 584.7 0 569.3 0 554C0 538.7 0 523.3 0 508C0 492.7 0 477.3 0 461.8C0 446.3 0 430.7 0 415.2C0 399.7 0 384.3 0 369C0 353.7 0 338.3 0 323C0 307.7 0 292.3 0 277C0 261.7 0 246.3 0 231C0 215.7 0 200.3 0 184.8C0 169.3 0 153.7 0 138.2C0 122.7 0 107.3 0 92C0 76.7 0 61.3 0 46C0 30.7 0 15.3 0 7.7L0 0Z" fill="#0f5d2d"></path><path d="M240 0L240 7.7C240 15.3 240 30.7 233.5 46C227 61.3 214 76.7 204.8 92C195.7 107.3 190.3 122.7 189 138.2C187.7 153.7 190.3 169.3 200.7 184.8C211 200.3 229 215.7 231.7 231C234.3 246.3 221.7 261.7 220.2 277C218.7 292.3 228.3 307.7 228.5 323C228.7 338.3 219.3 353.7 210.8 369C202.3 384.3 194.7 399.7 188.2 415.2C181.7 430.7 176.3 446.3 180.5 461.8C184.7 477.3 198.3 492.7 206.7 508C215 523.3 218 538.7 223.2 554C228.3 569.3 235.7 584.7 239.3 592.3L243 600L0 600L0 592.3C0 584.7 0 569.3 0 554C0 538.7 0 523.3 0 508C0 492.7 0 477.3 0 461.8C0 446.3 0 430.7 0 415.2C0 399.7 0 384.3 0 369C0 353.7 0 338.3 0 323C0 307.7 0 292.3 0 277C0 261.7 0 246.3 0 231C0 215.7 0 200.3 0 184.8C0 169.3 0 153.7 0 138.2C0 122.7 0 107.3 0 92C0 76.7 0 61.3 0 46C0 30.7 0 15.3 0 7.7L0 0Z" fill="#0d5427"></path><path d="M186 0L190.8 7.7C195.7 15.3 205.3 30.7 206.2 46C207 61.3 199 76.7 185.2 92C171.3 107.3 151.7 122.7 153.5 138.2C155.3 153.7 178.7 169.3 184.2 184.8C189.7 200.3 177.3 215.7 173 231C168.7 246.3 172.3 261.7 169.3 277C166.3 292.3 156.7 307.7 153.5 323C150.3 338.3 153.7 353.7 150.7 369C147.7 384.3 138.3 399.7 143 415.2C147.7 430.7 166.3 446.3 169.7 461.8C173 477.3 161 492.7 155.7 508C150.3 523.3 151.7 538.7 149.2 554C146.7 569.3 140.3 584.7 137.2 592.3L134 600L0 600L0 592.3C0 584.7 0 569.3 0 554C0 538.7 0 523.3 0 508C0 492.7 0 477.3 0 461.8C0 446.3 0 430.7 0 415.2C0 399.7 0 384.3 0 369C0 353.7 0 338.3 0 323C0 307.7 0 292.3 0 277C0 261.7 0 246.3 0 231C0 215.7 0 200.3 0 184.8C0 169.3 0 153.7 0 138.2C0 122.7 0 107.3 0 92C0 76.7 0 61.3 0 46C0 30.7 0 15.3 0 7.7L0 0Z" fill="#0a4a21"></path><path d="M186 0L176.5 7.7C167 15.3 148 30.7 142.5 46C137 61.3 145 76.7 147.7 92C150.3 107.3 147.7 122.7 146.8 138.2C146 153.7 147 169.3 146.8 184.8C146.7 200.3 145.3 215.7 141.7 231C138 246.3 132 261.7 125.3 277C118.7 292.3 111.3 307.7 115 323C118.7 338.3 133.3 353.7 144.2 369C155 384.3 162 399.7 167.5 415.2C173 430.7 177 446.3 171 461.8C165 477.3 149 492.7 147.3 508C145.7 523.3 158.3 538.7 163 554C167.7 569.3 164.3 584.7 162.7 592.3L161 600L0 600L0 592.3C0 584.7 0 569.3 0 554C0 538.7 0 523.3 0 508C0 492.7 0 477.3 0 461.8C0 446.3 0 430.7 0 415.2C0 399.7 0 384.3 0 369C0 353.7 0 338.3 0 323C0 307.7 0 292.3 0 277C0 261.7 0 246.3 0 231C0 215.7 0 200.3 0 184.8C0 169.3 0 153.7 0 138.2C0 122.7 0 107.3 0 92C0 76.7 0 61.3 0 46C0 30.7 0 15.3 0 7.7L0 0Z" fill="#08421b"></path><path d="M89 0L91.3 7.7C93.7 15.3 98.3 30.7 103.2 46C108 61.3 113 76.7 114.2 92C115.3 107.3 112.7 122.7 111 138.2C109.3 153.7 108.7 169.3 105 184.8C101.3 200.3 94.7 215.7 92 231C89.3 246.3 90.7 261.7 95.7 277C100.7 292.3 109.3 307.7 119.5 323C129.7 338.3 141.3 353.7 140.5 369C139.7 384.3 126.3 399.7 125.5 415.2C124.7 430.7 136.3 446.3 140.8 461.8C145.3 477.3 142.7 492.7 132 508C121.3 523.3 102.7 538.7 104.2 554C105.7 569.3 127.3 584.7 138.2 592.3L149 600L0 600L0 592.3C0 584.7 0 569.3 0 554C0 538.7 0 523.3 0 508C0 492.7 0 477.3 0 461.8C0 446.3 0 430.7 0 415.2C0 399.7 0 384.3 0 369C0 353.7 0 338.3 0 323C0 307.7 0 292.3 0 277C0 261.7 0 246.3 0 231C0 215.7 0 200.3 0 184.8C0 169.3 0 153.7 0 138.2C0 122.7 0 107.3 0 92C0 76.7 0 61.3 0 46C0 30.7 0 15.3 0 7.7L0 0Z" fill="#063916"></path><path d="M123 0L118.2 7.7C113.3 15.3 103.7 30.7 92.5 46C81.3 61.3 68.7 76.7 62.7 92C56.7 107.3 57.3 122.7 64 138.2C70.7 153.7 83.3 169.3 85 184.8C86.7 200.3 77.3 215.7 79 231C80.7 246.3 93.3 261.7 91.8 277C90.3 292.3 74.7 307.7 66.7 323C58.7 338.3 58.3 353.7 67.5 369C76.7 384.3 95.3 399.7 105.7 415.2C116 430.7 118 446.3 114.8 461.8C111.7 477.3 103.3 492.7 93.5 508C83.7 523.3 72.3 538.7 66 554C59.7 569.3 58.3 584.7 57.7 592.3L57 600L0 600L0 592.3C0 584.7 0 569.3 0 554C0 538.7 0 523.3 0 508C0 492.7 0 477.3 0 461.8C0 446.3 0 430.7 0 415.2C0 399.7 0 384.3 0 369C0 353.7 0 338.3 0 323C0 307.7 0 292.3 0 277C0 261.7 0 246.3 0 231C0 215.7 0 200.3 0 184.8C0 169.3 0 153.7 0 138.2C0 122.7 0 107.3 0 92C0 76.7 0 61.3 0 46C0 30.7 0 15.3 0 7.7L0 0Z" fill="#043010"></path><path d="M73 0L66.2 7.7C59.3 15.3 45.7 30.7 39.5 46C33.3 61.3 34.7 76.7 35.2 92C35.7 107.3 35.3 122.7 44.5 138.2C53.7 153.7 72.3 169.3 76.2 184.8C80 200.3 69 215.7 66.2 231C63.3 246.3 68.7 261.7 73 277C77.3 292.3 80.7 307.7 74.3 323C68 338.3 52 353.7 46.2 369C40.3 384.3 44.7 399.7 46.8 415.2C49 430.7 49 446.3 46.7 461.8C44.3 477.3 39.7 492.7 44.7 508C49.7 523.3 64.3 538.7 73.5 554C82.7 569.3 86.3 584.7 88.2 592.3L90 600L0 600L0 592.3C0 584.7 0 569.3 0 554C0 538.7 0 523.3 0 508C0 492.7 0 477.3 0 461.8C0 446.3 0 430.7 0 415.2C0 399.7 0 384.3 0 369C0 353.7 0 338.3 0 323C0 307.7 0 292.3 0 277C0 261.7 0 246.3 0 231C0 215.7 0 200.3 0 184.8C0 169.3 0 153.7 0 138.2C0 122.7 0 107.3 0 92C0 76.7 0 61.3 0 46C0 30.7 0 15.3 0 7.7L0 0Z" fill="#032809"></path><path d="M32 0L30.3 7.7C28.7 15.3 25.3 30.7 24 46C22.7 61.3 23.3 76.7 24.5 92C25.7 107.3 27.3 122.7 27.8 138.2C28.3 153.7 27.7 169.3 31 184.8C34.3 200.3 41.7 215.7 46 231C50.3 246.3 51.7 261.7 49.8 277C48 292.3 43 307.7 36.3 323C29.7 338.3 21.3 353.7 16.3 369C11.3 384.3 9.7 399.7 14.3 415.2C19 430.7 30 446.3 37 461.8C44 477.3 47 492.7 41.7 508C36.3 523.3 22.7 538.7 19 554C15.3 569.3 21.7 584.7 24.8 592.3L28 600L0 600L0 592.3C0 584.7 0 569.3 0 554C0 538.7 0 523.3 0 508C0 492.7 0 477.3 0 461.8C0 446.3 0 430.7 0 415.2C0 399.7 0 384.3 0 369C0 353.7 0 338.3 0 323C0 307.7 0 292.3 0 277C0 261.7 0 246.3 0 231C0 215.7 0 200.3 0 184.8C0 169.3 0 153.7 0 138.2C0 122.7 0 107.3 0 92C0 76.7 0 61.3 0 46C0 30.7 0 15.3 0 7.7L0 0Z" fill="#002000"></path></svg>