<svg id="visual" viewBox="0 0 960 300" width="960" height="300" xmlns="http://www.w3.org/2000/svg" xmlns:xlink="http://www.w3.org/1999/xlink" version="1.1"><rect x="0" y="0" width="960" height="300" fill="#181818"></rect><path d="M0 134L22.8 131.3C45.7 128.7 91.3 123.3 137 128.2C182.7 133 228.3 148 274 150C319.7 152 365.3 141 411.2 134.7C457 128.3 503 126.7 548.8 130.7C594.7 134.7 640.3 144.3 686 140.5C731.7 136.7 777.3 119.3 823 117C868.7 114.7 914.3 127.3 937.2 133.7L960 140L960 301L937.2 301C914.3 301 868.7 301 823 301C777.3 301 731.7 301 686 301C640.3 301 594.7 301 548.8 301C503 301 457 301 411.2 301C365.3 301 319.7 301 274 301C228.3 301 182.7 301 137 301C91.3 301 45.7 301 22.8 301L0 301Z" fill="#3a975e"></path><path d="M0 158L22.8 162.7C45.7 167.3 91.3 176.7 137 177.2C182.7 177.7 228.3 169.3 274 170.2C319.7 171 365.3 181 411.2 183.8C457 186.7 503 182.3 548.8 176C594.7 169.7 640.3 161.3 686 155C731.7 148.7 777.3 144.3 823 144.5C868.7 144.7 914.3 149.3 937.2 151.7L960 154L960 301L937.2 301C914.3 301 868.7 301 823 301C777.3 301 731.7 301 686 301C640.3 301 594.7 301 548.8 301C503 301 457 301 411.2 301C365.3 301 319.7 301 274 301C228.3 301 182.7 301 137 301C91.3 301 45.7 301 22.8 301L0 301Z" fill="#28834c"></path><path d="M0 190L22.8 194.7C45.7 199.3 91.3 208.7 137 205C182.7 201.3 228.3 184.7 274 183.8C319.7 183 365.3 198 411.2 204.2C457 210.3 503 207.7 548.8 203.7C594.7 199.7 640.3 194.3 686 191.3C731.7 188.3 777.3 187.7 823 188.8C868.7 190 914.3 193 937.2 194.5L960 196L960 301L937.2 301C914.3 301 868.7 301 823 301C777.3 301 731.7 301 686 301C640.3 301 594.7 301 548.8 301C503 301 457 301 411.2 301C365.3 301 319.7 301 274 301C228.3 301 182.7 301 137 301C91.3 301 45.7 301 22.8 301L0 301Z" fill="#13703a"></path><path d="M0 203L22.8 206.3C45.7 209.7 91.3 216.3 137 219.8C182.7 223.3 228.3 223.7 274 227C319.7 230.3 365.3 236.7 411.2 234.5C457 232.3 503 221.7 548.8 220.3C594.7 219 640.3 227 686 230.3C731.7 233.7 777.3 232.3 823 233.7C868.7 235 914.3 239 937.2 241L960 243L960 301L937.2 301C914.3 301 868.7 301 823 301C777.3 301 731.7 301 686 301C640.3 301 594.7 301 548.8 301C503 301 457 301 411.2 301C365.3 301 319.7 301 274 301C228.3 301 182.7 301 137 301C91.3 301 45.7 301 22.8 301L0 301Z" fill="#116133"></path><path d="M0 269L22.8 264.7C45.7 260.3 91.3 251.7 137 250.3C182.7 249 228.3 255 274 256.2C319.7 257.3 365.3 253.7 411.2 253.3C457 253 503 256 548.8 259.2C594.7 262.3 640.3 265.7 686 262.8C731.7 260 777.3 251 823 247.5C868.7 244 914.3 246 937.2 247L960 248L960 301L937.2 301C914.3 301 868.7 301 823 301C777.3 301 731.7 301 686 301C640.3 301 594.7 301 548.8 301C503 301 457 301 411.2 301C365.3 301 319.7 301 274 301C228.3 301 182.7 301 137 301C91.3 301 45.7 301 22.8 301L0 301Z" fill="#0f522c"></path></svg>