<svg id="visual" viewBox="0 0 960 540" width="960" height="540" xmlns="http://www.w3.org/2000/svg" xmlns:xlink="http://www.w3.org/1999/xlink" version="1.1"><rect x="0" y="0" width="960" height="540" fill="#181818"></rect><path d="M711 540L705.7 536.2C700.3 532.3 689.7 524.7 679.8 516.8C670 509 661 501 669 493.2C677 485.3 702 477.7 707.5 469.8C713 462 699 454 684.5 446.2C670 438.3 655 430.7 651.8 422.8C648.7 415 657.3 407 660.3 399.2C663.3 391.3 660.7 383.7 660.5 375.8C660.3 368 662.7 360 675.2 352.2C687.7 344.3 710.3 336.7 715.5 328.8C720.7 321 708.3 313 693 305.2C677.7 297.3 659.3 289.7 654.7 281.8C650 274 659 266 666.5 258.2C674 250.3 680 242.7 678.5 234.8C677 227 668 219 667.5 211.2C667 203.3 675 195.7 673.3 187.8C671.7 180 660.3 172 668.2 164.2C676 156.3 703 148.7 714.2 140.8C725.3 133 720.7 125 709.2 117.2C697.7 109.3 679.3 101.7 669.2 93.8C659 86 657 78 667.8 70.2C678.7 62.3 702.3 54.7 714 46.8C725.7 39 725.3 31 719.2 23.2C713 15.3 701 7.7 695 3.8L689 0L960 0L960 3.8C960 7.7 960 15.3 960 23.2C960 31 960 39 960 46.8C960 54.7 960 62.3 960 70.2C960 78 960 86 960 93.8C960 101.7 960 109.3 960 117.2C960 125 960 133 960 140.8C960 148.7 960 156.3 960 164.2C960 172 960 180 960 187.8C960 195.7 960 203.3 960 211.2C960 219 960 227 960 234.8C960 242.7 960 250.3 960 258.2C960 266 960 274 960 281.8C960 289.7 960 297.3 960 305.2C960 313 960 321 960 328.8C960 336.7 960 344.3 960 352.2C960 360 960 368 960 375.8C960 383.7 960 391.3 960 399.2C960 407 960 415 960 422.8C960 430.7 960 438.3 960 446.2C960 454 960 462 960 469.8C960 477.7 960 485.3 960 493.2C960 501 960 509 960 516.8C960 524.7 960 532.3 960 536.2L960 540Z" fill="#d2292d"></path><path d="M738 540L728.2 536.2C718.3 532.3 698.7 524.7 688 516.8C677.3 509 675.7 501 676.8 493.2C678 485.3 682 477.7 685.2 469.8C688.3 462 690.7 454 696.8 446.2C703 438.3 713 430.7 711.2 422.8C709.3 415 695.7 407 698.7 399.2C701.7 391.3 721.3 383.7 732.8 375.8C744.3 368 747.7 360 737.3 352.2C727 344.3 703 336.7 698.7 328.8C694.3 321 709.7 313 721.5 305.2C733.3 297.3 741.7 289.7 744.7 281.8C747.7 274 745.3 266 743.2 258.2C741 250.3 739 242.7 736.7 234.8C734.3 227 731.7 219 735.5 211.2C739.3 203.3 749.7 195.7 744 187.8C738.3 180 716.7 172 703.8 164.2C691 156.3 687 148.7 689.7 140.8C692.3 133 701.7 125 706.2 117.2C710.7 109.3 710.3 101.7 710.2 93.8C710 86 710 78 711.2 70.2C712.3 62.3 714.7 54.7 719.5 46.8C724.3 39 731.7 31 733 23.2C734.3 15.3 729.7 7.7 727.3 3.8L725 0L960 0L960 3.8C960 7.7 960 15.3 960 23.2C960 31 960 39 960 46.8C960 54.7 960 62.3 960 70.2C960 78 960 86 960 93.8C960 101.7 960 109.3 960 117.2C960 125 960 133 960 140.8C960 148.7 960 156.3 960 164.2C960 172 960 180 960 187.8C960 195.7 960 203.3 960 211.2C960 219 960 227 960 234.8C960 242.7 960 250.3 960 258.2C960 266 960 274 960 281.8C960 289.7 960 297.3 960 305.2C960 313 960 321 960 328.8C960 336.7 960 344.3 960 352.2C960 360 960 368 960 375.8C960 383.7 960 391.3 960 399.2C960 407 960 415 960 422.8C960 430.7 960 438.3 960 446.2C960 454 960 462 960 469.8C960 477.7 960 485.3 960 493.2C960 501 960 509 960 516.8C960 524.7 960 532.3 960 536.2L960 540Z" fill="#c72529"></path><path d="M685 540L694.7 536.2C704.3 532.3 723.7 524.7 738 516.8C752.3 509 761.7 501 760.2 493.2C758.7 485.3 746.3 477.7 746.5 469.8C746.7 462 759.3 454 766.2 446.2C773 438.3 774 430.7 769 422.8C764 415 753 407 746.5 399.2C740 391.3 738 383.7 731.7 375.8C725.3 368 714.7 360 714.8 352.2C715 344.3 726 336.7 730.8 328.8C735.7 321 734.3 313 733.7 305.2C733 297.3 733 289.7 739.7 281.8C746.3 274 759.7 266 763.3 258.2C767 250.3 761 242.7 757.8 234.8C754.7 227 754.3 219 750.5 211.2C746.7 203.3 739.3 195.7 741.7 187.8C744 180 756 172 752.5 164.2C749 156.3 730 148.7 723.5 140.8C717 133 723 125 719.2 117.2C715.3 109.3 701.7 101.7 699.2 93.8C696.7 86 705.3 78 706.2 70.2C707 62.3 700 54.7 697.3 46.8C694.7 39 696.3 31 704.2 23.2C712 15.3 726 7.7 733 3.8L740 0L960 0L960 3.8C960 7.7 960 15.3 960 23.2C960 31 960 39 960 46.8C960 54.7 960 62.3 960 70.2C960 78 960 86 960 93.8C960 101.7 960 109.3 960 117.2C960 125 960 133 960 140.8C960 148.7 960 156.3 960 164.2C960 172 960 180 960 187.8C960 195.7 960 203.3 960 211.2C960 219 960 227 960 234.8C960 242.7 960 250.3 960 258.2C960 266 960 274 960 281.8C960 289.7 960 297.3 960 305.2C960 313 960 321 960 328.8C960 336.7 960 344.3 960 352.2C960 360 960 368 960 375.8C960 383.7 960 391.3 960 399.2C960 407 960 415 960 422.8C960 430.7 960 438.3 960 446.2C960 454 960 462 960 469.8C960 477.7 960 485.3 960 493.2C960 501 960 509 960 516.8C960 524.7 960 532.3 960 536.2L960 540Z" fill="#bd2125"></path><path d="M783 540L774.5 536.2C766 532.3 749 524.7 741 516.8C733 509 734 501 730.8 493.2C727.7 485.3 720.3 477.7 721.5 469.8C722.7 462 732.3 454 738.8 446.2C745.3 438.3 748.7 430.7 757.2 422.8C765.7 415 779.3 407 776.7 399.2C774 391.3 755 383.7 741.5 375.8C728 368 720 360 719.5 352.2C719 344.3 726 336.7 732.3 328.8C738.7 321 744.3 313 740.5 305.2C736.7 297.3 723.3 289.7 718.5 281.8C713.7 274 717.3 266 721 258.2C724.7 250.3 728.3 242.7 734.8 234.8C741.3 227 750.7 219 748 211.2C745.3 203.3 730.7 195.7 723 187.8C715.3 180 714.7 172 716.2 164.2C717.7 156.3 721.3 148.7 728.7 140.8C736 133 747 125 755 117.2C763 109.3 768 101.7 768.7 93.8C769.3 86 765.7 78 758.8 70.2C752 62.3 742 54.7 740.7 46.8C739.3 39 746.7 31 745.8 23.2C745 15.3 736 7.7 731.5 3.8L727 0L960 0L960 3.8C960 7.7 960 15.3 960 23.2C960 31 960 39 960 46.8C960 54.7 960 62.3 960 70.2C960 78 960 86 960 93.8C960 101.7 960 109.3 960 117.2C960 125 960 133 960 140.8C960 148.7 960 156.3 960 164.2C960 172 960 180 960 187.8C960 195.7 960 203.3 960 211.2C960 219 960 227 960 234.8C960 242.7 960 250.3 960 258.2C960 266 960 274 960 281.8C960 289.7 960 297.3 960 305.2C960 313 960 321 960 328.8C960 336.7 960 344.3 960 352.2C960 360 960 368 960 375.8C960 383.7 960 391.3 960 399.2C960 407 960 415 960 422.8C960 430.7 960 438.3 960 446.2C960 454 960 462 960 469.8C960 477.7 960 485.3 960 493.2C960 501 960 509 960 516.8C960 524.7 960 532.3 960 536.2L960 540Z" fill="#b21e21"></path><path d="M753 540L761.2 536.2C769.3 532.3 785.7 524.7 783.5 516.8C781.3 509 760.7 501 756.2 493.2C751.7 485.3 763.3 477.7 765.5 469.8C767.7 462 760.3 454 756.3 446.2C752.3 438.3 751.7 430.7 760 422.8C768.3 415 785.7 407 791 399.2C796.3 391.3 789.7 383.7 780.7 375.8C771.7 368 760.3 360 760 352.2C759.7 344.3 770.3 336.7 770 328.8C769.7 321 758.3 313 755.8 305.2C753.3 297.3 759.7 289.7 761 281.8C762.3 274 758.7 266 758.8 258.2C759 250.3 763 242.7 771.7 234.8C780.3 227 793.7 219 799 211.2C804.3 203.3 801.7 195.7 802.3 187.8C803 180 807 172 797.2 164.2C787.3 156.3 763.7 148.7 758.8 140.8C754 133 768 125 778.3 117.2C788.7 109.3 795.3 101.7 797 93.8C798.7 86 795.3 78 793.3 70.2C791.3 62.3 790.7 54.7 788.8 46.8C787 39 784 31 787.8 23.2C791.7 15.3 802.3 7.7 807.7 3.8L813 0L960 0L960 3.8C960 7.7 960 15.3 960 23.2C960 31 960 39 960 46.8C960 54.7 960 62.3 960 70.2C960 78 960 86 960 93.8C960 101.7 960 109.3 960 117.2C960 125 960 133 960 140.8C960 148.7 960 156.3 960 164.2C960 172 960 180 960 187.8C960 195.7 960 203.3 960 211.2C960 219 960 227 960 234.8C960 242.7 960 250.3 960 258.2C960 266 960 274 960 281.8C960 289.7 960 297.3 960 305.2C960 313 960 321 960 328.8C960 336.7 960 344.3 960 352.2C960 360 960 368 960 375.8C960 383.7 960 391.3 960 399.2C960 407 960 415 960 422.8C960 430.7 960 438.3 960 446.2C960 454 960 462 960 469.8C960 477.7 960 485.3 960 493.2C960 501 960 509 960 516.8C960 524.7 960 532.3 960 536.2L960 540Z" fill="#a81a1d"></path><path d="M782 540L780.3 536.2C778.7 532.3 775.3 524.7 774 516.8C772.7 509 773.3 501 782.8 493.2C792.3 485.3 810.7 477.7 811.2 469.8C811.7 462 794.3 454 793.3 446.2C792.3 438.3 807.7 430.7 805.7 422.8C803.7 415 784.3 407 776.5 399.2C768.7 391.3 772.3 383.7 775.8 375.8C779.3 368 782.7 360 784.3 352.2C786 344.3 786 336.7 785.3 328.8C784.7 321 783.3 313 789.2 305.2C795 297.3 808 289.7 805 281.8C802 274 783 266 782.3 258.2C781.7 250.3 799.3 242.7 809.7 234.8C820 227 823 219 818.8 211.2C814.7 203.3 803.3 195.7 800.7 187.8C798 180 804 172 809.2 164.2C814.3 156.3 818.7 148.7 815.8 140.8C813 133 803 125 796.8 117.2C790.7 109.3 788.3 101.7 793.3 93.8C798.3 86 810.7 78 813.2 70.2C815.7 62.3 808.3 54.7 801.2 46.8C794 39 787 31 791.8 23.2C796.7 15.3 813.3 7.7 821.7 3.8L830 0L960 0L960 3.8C960 7.7 960 15.3 960 23.2C960 31 960 39 960 46.8C960 54.7 960 62.3 960 70.2C960 78 960 86 960 93.8C960 101.7 960 109.3 960 117.2C960 125 960 133 960 140.8C960 148.7 960 156.3 960 164.2C960 172 960 180 960 187.8C960 195.7 960 203.3 960 211.2C960 219 960 227 960 234.8C960 242.7 960 250.3 960 258.2C960 266 960 274 960 281.8C960 289.7 960 297.3 960 305.2C960 313 960 321 960 328.8C960 336.7 960 344.3 960 352.2C960 360 960 368 960 375.8C960 383.7 960 391.3 960 399.2C960 407 960 415 960 422.8C960 430.7 960 438.3 960 446.2C960 454 960 462 960 469.8C960 477.7 960 485.3 960 493.2C960 501 960 509 960 516.8C960 524.7 960 532.3 960 536.2L960 540Z" fill="#9e161a"></path><path d="M853 540L843.7 536.2C834.3 532.3 815.7 524.7 813.8 516.8C812 509 827 501 829.2 493.2C831.3 485.3 820.7 477.7 812.5 469.8C804.3 462 798.7 454 799.5 446.2C800.3 438.3 807.7 430.7 807.3 422.8C807 415 799 407 803.5 399.2C808 391.3 825 383.7 830.7 375.8C836.3 368 830.7 360 830.8 352.2C831 344.3 837 336.7 834 328.8C831 321 819 313 810.5 305.2C802 297.3 797 289.7 794.3 281.8C791.7 274 791.3 266 797.5 258.2C803.7 250.3 816.3 242.7 820.3 234.8C824.3 227 819.7 219 817.8 211.2C816 203.3 817 195.7 813.3 187.8C809.7 180 801.3 172 800.7 164.2C800 156.3 807 148.7 807.2 140.8C807.3 133 800.7 125 802.7 117.2C804.7 109.3 815.3 101.7 815.5 93.8C815.7 86 805.3 78 804 70.2C802.7 62.3 810.3 54.7 819.2 46.8C828 39 838 31 842.3 23.2C846.7 15.3 845.3 7.7 844.7 3.8L844 0L960 0L960 3.8C960 7.7 960 15.3 960 23.2C960 31 960 39 960 46.8C960 54.7 960 62.3 960 70.2C960 78 960 86 960 93.8C960 101.7 960 109.3 960 117.2C960 125 960 133 960 140.8C960 148.7 960 156.3 960 164.2C960 172 960 180 960 187.8C960 195.7 960 203.3 960 211.2C960 219 960 227 960 234.8C960 242.7 960 250.3 960 258.2C960 266 960 274 960 281.8C960 289.7 960 297.3 960 305.2C960 313 960 321 960 328.8C960 336.7 960 344.3 960 352.2C960 360 960 368 960 375.8C960 383.7 960 391.3 960 399.2C960 407 960 415 960 422.8C960 430.7 960 438.3 960 446.2C960 454 960 462 960 469.8C960 477.7 960 485.3 960 493.2C960 501 960 509 960 516.8C960 524.7 960 532.3 960 536.2L960 540Z" fill="#941216"></path><path d="M841 540L845 536.2C849 532.3 857 524.7 853 516.8C849 509 833 501 826.7 493.2C820.3 485.3 823.7 477.7 832.5 469.8C841.3 462 855.7 454 853.8 446.2C852 438.3 834 430.7 825.3 422.8C816.7 415 817.3 407 820.2 399.2C823 391.3 828 383.7 830.5 375.8C833 368 833 360 837.3 352.2C841.7 344.3 850.3 336.7 848.7 328.8C847 321 835 313 837 305.2C839 297.3 855 289.7 854.5 281.8C854 274 837 266 831.5 258.2C826 250.3 832 242.7 838 234.8C844 227 850 219 852.8 211.2C855.7 203.3 855.3 195.7 853.8 187.8C852.3 180 849.7 172 846.7 164.2C843.7 156.3 840.3 148.7 838.8 140.8C837.3 133 837.7 125 840 117.2C842.3 109.3 846.7 101.7 848.3 93.8C850 86 849 78 844.8 70.2C840.7 62.3 833.3 54.7 836.8 46.8C840.3 39 854.7 31 856.8 23.2C859 15.3 849 7.7 844 3.8L839 0L960 0L960 3.8C960 7.7 960 15.3 960 23.2C960 31 960 39 960 46.8C960 54.7 960 62.3 960 70.2C960 78 960 86 960 93.8C960 101.7 960 109.3 960 117.2C960 125 960 133 960 140.8C960 148.7 960 156.3 960 164.2C960 172 960 180 960 187.8C960 195.7 960 203.3 960 211.2C960 219 960 227 960 234.8C960 242.7 960 250.3 960 258.2C960 266 960 274 960 281.8C960 289.7 960 297.3 960 305.2C960 313 960 321 960 328.8C960 336.7 960 344.3 960 352.2C960 360 960 368 960 375.8C960 383.7 960 391.3 960 399.2C960 407 960 415 960 422.8C960 430.7 960 438.3 960 446.2C960 454 960 462 960 469.8C960 477.7 960 485.3 960 493.2C960 501 960 509 960 516.8C960 524.7 960 532.3 960 536.2L960 540Z" fill="#8a0e13"></path><path d="M882 540L876.2 536.2C870.3 532.3 858.7 524.7 854.7 516.8C850.7 509 854.3 501 854.3 493.2C854.3 485.3 850.7 477.7 852.5 469.8C854.3 462 861.7 454 861.7 446.2C861.7 438.3 854.3 430.7 850.3 422.8C846.3 415 845.7 407 851.2 399.2C856.7 391.3 868.3 383.7 867.5 375.8C866.7 368 853.3 360 847 352.2C840.7 344.3 841.3 336.7 846.3 328.8C851.3 321 860.7 313 864.3 305.2C868 297.3 866 289.7 865.5 281.8C865 274 866 266 869.5 258.2C873 250.3 879 242.7 878.2 234.8C877.3 227 869.7 219 863 211.2C856.3 203.3 850.7 195.7 847.7 187.8C844.7 180 844.3 172 844.3 164.2C844.3 156.3 844.7 148.7 847.7 140.8C850.7 133 856.3 125 859 117.2C861.7 109.3 861.3 101.7 861.5 93.8C861.7 86 862.3 78 864.3 70.2C866.3 62.3 869.7 54.7 872.7 46.8C875.7 39 878.3 31 876.7 23.2C875 15.3 869 7.7 866 3.8L863 0L960 0L960 3.8C960 7.7 960 15.3 960 23.2C960 31 960 39 960 46.8C960 54.7 960 62.3 960 70.2C960 78 960 86 960 93.8C960 101.7 960 109.3 960 117.2C960 125 960 133 960 140.8C960 148.7 960 156.3 960 164.2C960 172 960 180 960 187.8C960 195.7 960 203.3 960 211.2C960 219 960 227 960 234.8C960 242.7 960 250.3 960 258.2C960 266 960 274 960 281.8C960 289.7 960 297.3 960 305.2C960 313 960 321 960 328.8C960 336.7 960 344.3 960 352.2C960 360 960 368 960 375.8C960 383.7 960 391.3 960 399.2C960 407 960 415 960 422.8C960 430.7 960 438.3 960 446.2C960 454 960 462 960 469.8C960 477.7 960 485.3 960 493.2C960 501 960 509 960 516.8C960 524.7 960 532.3 960 536.2L960 540Z" fill="#800a0f"></path><path d="M907 540L903.3 536.2C899.7 532.3 892.3 524.7 888 516.8C883.7 509 882.3 501 879.3 493.2C876.3 485.3 871.7 477.7 870.2 469.8C868.7 462 870.3 454 875 446.2C879.7 438.3 887.3 430.7 889 422.8C890.7 415 886.3 407 883.2 399.2C880 391.3 878 383.7 877.2 375.8C876.3 368 876.7 360 875.7 352.2C874.7 344.3 872.3 336.7 872.2 328.8C872 321 874 313 875.3 305.2C876.7 297.3 877.3 289.7 881.5 281.8C885.7 274 893.3 266 896.7 258.2C900 250.3 899 242.7 896.5 234.8C894 227 890 219 888.7 211.2C887.3 203.3 888.7 195.7 891.3 187.8C894 180 898 172 897.8 164.2C897.7 156.3 893.3 148.7 890.5 140.8C887.7 133 886.3 125 889.7 117.2C893 109.3 901 101.7 903.5 93.8C906 86 903 78 901.3 70.2C899.7 62.3 899.3 54.7 896 46.8C892.7 39 886.3 31 885.7 23.2C885 15.3 890 7.7 892.5 3.8L895 0L960 0L960 3.8C960 7.7 960 15.3 960 23.2C960 31 960 39 960 46.8C960 54.7 960 62.3 960 70.2C960 78 960 86 960 93.8C960 101.7 960 109.3 960 117.2C960 125 960 133 960 140.8C960 148.7 960 156.3 960 164.2C960 172 960 180 960 187.8C960 195.7 960 203.3 960 211.2C960 219 960 227 960 234.8C960 242.7 960 250.3 960 258.2C960 266 960 274 960 281.8C960 289.7 960 297.3 960 305.2C960 313 960 321 960 328.8C960 336.7 960 344.3 960 352.2C960 360 960 368 960 375.8C960 383.7 960 391.3 960 399.2C960 407 960 415 960 422.8C960 430.7 960 438.3 960 446.2C960 454 960 462 960 469.8C960 477.7 960 485.3 960 493.2C960 501 960 509 960 516.8C960 524.7 960 532.3 960 536.2L960 540Z" fill="#77060b"></path><path d="M898 540L901.2 536.2C904.3 532.3 910.7 524.7 914.7 516.8C918.7 509 920.3 501 919.7 493.2C919 485.3 916 477.7 912.5 469.8C909 462 905 454 905 446.2C905 438.3 909 430.7 911.8 422.8C914.7 415 916.3 407 915.5 399.2C914.7 391.3 911.3 383.7 912.3 375.8C913.3 368 918.7 360 920 352.2C921.3 344.3 918.7 336.7 914 328.8C909.3 321 902.7 313 902.5 305.2C902.3 297.3 908.7 289.7 910.7 281.8C912.7 274 910.3 266 908.5 258.2C906.7 250.3 905.3 242.7 902.7 234.8C900 227 896 219 898.2 211.2C900.3 203.3 908.7 195.7 913.5 187.8C918.3 180 919.7 172 919.3 164.2C919 156.3 917 148.7 912.7 140.8C908.3 133 901.7 125 901.5 117.2C901.3 109.3 907.7 101.7 908.7 93.8C909.7 86 905.3 78 903 70.2C900.7 62.3 900.3 54.7 900.8 46.8C901.3 39 902.7 31 905.2 23.2C907.7 15.3 911.3 7.7 913.2 3.8L915 0L960 0L960 3.8C960 7.7 960 15.3 960 23.2C960 31 960 39 960 46.8C960 54.7 960 62.3 960 70.2C960 78 960 86 960 93.8C960 101.7 960 109.3 960 117.2C960 125 960 133 960 140.8C960 148.7 960 156.3 960 164.2C960 172 960 180 960 187.8C960 195.7 960 203.3 960 211.2C960 219 960 227 960 234.8C960 242.7 960 250.3 960 258.2C960 266 960 274 960 281.8C960 289.7 960 297.3 960 305.2C960 313 960 321 960 328.8C960 336.7 960 344.3 960 352.2C960 360 960 368 960 375.8C960 383.7 960 391.3 960 399.2C960 407 960 415 960 422.8C960 430.7 960 438.3 960 446.2C960 454 960 462 960 469.8C960 477.7 960 485.3 960 493.2C960 501 960 509 960 516.8C960 524.7 960 532.3 960 536.2L960 540Z" fill="#6d0306"></path><path d="M932 540L930.3 536.2C928.7 532.3 925.3 524.7 925.5 516.8C925.7 509 929.3 501 931 493.2C932.7 485.3 932.3 477.7 932.7 469.8C933 462 934 454 932.8 446.2C931.7 438.3 928.3 430.7 929 422.8C929.7 415 934.3 407 935.3 399.2C936.3 391.3 933.7 383.7 933.7 375.8C933.7 368 936.3 360 935.3 352.2C934.3 344.3 929.7 336.7 929.8 328.8C930 321 935 313 938.5 305.2C942 297.3 944 289.7 943.7 281.8C943.3 274 940.7 266 936.5 258.2C932.3 250.3 926.7 242.7 927 234.8C927.3 227 933.7 219 936.2 211.2C938.7 203.3 937.3 195.7 934 187.8C930.7 180 925.3 172 926.8 164.2C928.3 156.3 936.7 148.7 937.2 140.8C937.7 133 930.3 125 927.5 117.2C924.7 109.3 926.3 101.7 928.2 93.8C930 86 932 78 931.7 70.2C931.3 62.3 928.7 54.7 926.2 46.8C923.7 39 921.3 31 921.5 23.2C921.7 15.3 924.3 7.7 925.7 3.8L927 0L960 0L960 3.8C960 7.7 960 15.3 960 23.2C960 31 960 39 960 46.8C960 54.7 960 62.3 960 70.2C960 78 960 86 960 93.8C960 101.7 960 109.3 960 117.2C960 125 960 133 960 140.8C960 148.7 960 156.3 960 164.2C960 172 960 180 960 187.8C960 195.7 960 203.3 960 211.2C960 219 960 227 960 234.8C960 242.7 960 250.3 960 258.2C960 266 960 274 960 281.8C960 289.7 960 297.3 960 305.2C960 313 960 321 960 328.8C960 336.7 960 344.3 960 352.2C960 360 960 368 960 375.8C960 383.7 960 391.3 960 399.2C960 407 960 415 960 422.8C960 430.7 960 438.3 960 446.2C960 454 960 462 960 469.8C960 477.7 960 485.3 960 493.2C960 501 960 509 960 516.8C960 524.7 960 532.3 960 536.2L960 540Z" fill="#640000"></path></svg>