<svg id="visual" viewBox="0 0 900 600" width="900" height="600" xmlns="http://www.w3.org/2000/svg" xmlns:xlink="http://www.w3.org/1999/xlink" version="1.1"><rect x="0" y="0" width="900" height="600" fill="#181818"></rect><path d="M0 388L21.5 388.3C43 388.7 86 389.3 128.8 384C171.7 378.7 214.3 367.3 257.2 360.2C300 353 343 350 385.8 336.8C428.7 323.7 471.3 300.3 514.2 290.3C557 280.3 600 283.7 642.8 297.5C685.7 311.3 728.3 335.7 771.2 351C814 366.3 857 372.7 878.5 375.8L900 379L900 601L878.5 601C857 601 814 601 771.2 601C728.3 601 685.7 601 642.8 601C600 601 557 601 514.2 601C471.3 601 428.7 601 385.8 601C343 601 300 601 257.2 601C214.3 601 171.7 601 128.8 601C86 601 43 601 21.5 601L0 601Z" fill="#13703a"></path><path d="M0 416L21.5 400C43 384 86 352 128.8 346.5C171.7 341 214.3 362 257.2 357.5C300 353 343 323 385.8 316.3C428.7 309.7 471.3 326.3 514.2 344C557 361.7 600 380.3 642.8 372.7C685.7 365 728.3 331 771.2 328.7C814 326.3 857 355.7 878.5 370.3L900 385L900 601L878.5 601C857 601 814 601 771.2 601C728.3 601 685.7 601 642.8 601C600 601 557 601 514.2 601C471.3 601 428.7 601 385.8 601C343 601 300 601 257.2 601C214.3 601 171.7 601 128.8 601C86 601 43 601 21.5 601L0 601Z" fill="#116432"></path><path d="M0 324L21.5 332.8C43 341.7 86 359.3 128.8 374.2C171.7 389 214.3 401 257.2 391.2C300 381.3 343 349.7 385.8 334.8C428.7 320 471.3 322 514.2 315.7C557 309.3 600 294.7 642.8 298.5C685.7 302.3 728.3 324.7 771.2 330.7C814 336.7 857 326.3 878.5 321.2L900 316L900 601L878.5 601C857 601 814 601 771.2 601C728.3 601 685.7 601 642.8 601C600 601 557 601 514.2 601C471.3 601 428.7 601 385.8 601C343 601 300 601 257.2 601C214.3 601 171.7 601 128.8 601C86 601 43 601 21.5 601L0 601Z" fill="#0e5829"></path><path d="M0 446L21.5 422.7C43 399.3 86 352.7 128.8 343.5C171.7 334.3 214.3 362.7 257.2 379.7C300 396.7 343 402.3 385.8 415.2C428.7 428 471.3 448 514.2 441.7C557 435.3 600 402.7 642.8 394.7C685.7 386.7 728.3 403.3 771.2 419.5C814 435.7 857 451.3 878.5 459.2L900 467L900 601L878.5 601C857 601 814 601 771.2 601C728.3 601 685.7 601 642.8 601C600 601 557 601 514.2 601C471.3 601 428.7 601 385.8 601C343 601 300 601 257.2 601C214.3 601 171.7 601 128.8 601C86 601 43 601 21.5 601L0 601Z" fill="#0b4c22"></path><path d="M0 431L21.5 438.3C43 445.7 86 460.3 128.8 456C171.7 451.7 214.3 428.3 257.2 426.5C300 424.7 343 444.3 385.8 442.3C428.7 440.3 471.3 416.7 514.2 411.2C557 405.7 600 418.3 642.8 422.3C685.7 426.3 728.3 421.7 771.2 413.7C814 405.7 857 394.3 878.5 388.7L900 383L900 601L878.5 601C857 601 814 601 771.2 601C728.3 601 685.7 601 642.8 601C600 601 557 601 514.2 601C471.3 601 428.7 601 385.8 601C343 601 300 601 257.2 601C214.3 601 171.7 601 128.8 601C86 601 43 601 21.5 601L0 601Z" fill="#08401a"></path><path d="M0 446L21.5 444.2C43 442.3 86 438.7 128.8 441.5C171.7 444.3 214.3 453.7 257.2 452C300 450.3 343 437.7 385.8 427.8C428.7 418 471.3 411 514.2 424.5C557 438 600 472 642.8 482.3C685.7 492.7 728.3 479.3 771.2 479.7C814 480 857 494 878.5 501L900 508L900 601L878.5 601C857 601 814 601 771.2 601C728.3 601 685.7 601 642.8 601C600 601 557 601 514.2 601C471.3 601 428.7 601 385.8 601C343 601 300 601 257.2 601C214.3 601 171.7 601 128.8 601C86 601 43 601 21.5 601L0 601Z" fill="#053513"></path><path d="M0 457L21.5 469.3C43 481.7 86 506.3 128.8 509C171.7 511.7 214.3 492.3 257.2 492.2C300 492 343 511 385.8 515.7C428.7 520.3 471.3 510.7 514.2 501.3C557 492 600 483 642.8 480.3C685.7 477.7 728.3 481.3 771.2 491.3C814 501.3 857 517.7 878.5 525.8L900 534L900 601L878.5 601C857 601 814 601 771.2 601C728.3 601 685.7 601 642.8 601C600 601 557 601 514.2 601C471.3 601 428.7 601 385.8 601C343 601 300 601 257.2 601C214.3 601 171.7 601 128.8 601C86 601 43 601 21.5 601L0 601Z" fill="#032a0c"></path><path d="M0 545L21.5 543.8C43 542.7 86 540.3 128.8 540.2C171.7 540 214.3 542 257.2 546.2C300 550.3 343 556.7 385.8 552.7C428.7 548.7 471.3 534.3 514.2 532.7C557 531 600 542 642.8 539.3C685.7 536.7 728.3 520.3 771.2 514C814 507.7 857 511.3 878.5 513.2L900 515L900 601L878.5 601C857 601 814 601 771.2 601C728.3 601 685.7 601 642.8 601C600 601 557 601 514.2 601C471.3 601 428.7 601 385.8 601C343 601 300 601 257.2 601C214.3 601 171.7 601 128.8 601C86 601 43 601 21.5 601L0 601Z" fill="#002000"></path></svg>